<?xml version="1.0" standalone="no"?>
<!DOCTYPE svg PUBLIC "-//W3C//DTD SVG 1.1//EN" "http://www.w3.org/Graphics/SVG/1.1/DTD/svg11.dtd" >
<svg xmlns="http://www.w3.org/2000/svg">
<metadata></metadata>
<defs>
<font id="lcdmono2normal" horiz-adv-x="1054" >
<font-face units-per-em="2048" ascent="1638" descent="-410" />
<missing-glyph horiz-adv-x="500" />
<glyph horiz-adv-x="1638" />
<glyph horiz-adv-x="1638" />
<glyph unicode="&#xd;" />
<glyph unicode=" " />
<glyph unicode="!" d="M348 80l86 76l64 -76l-86 -76zM377 291l59 422l86 75l66 -75l-60 -422l-86 -76zM465 926l90 633l86 75l66 -75l-89 -633l-88 -76z" />
<glyph unicode="&#x22;" d="M330 1249l26 199l86 74l66 -74l-29 -199l-86 -73zM547 1249l28 199l87 74l63 -74l-27 -199l-86 -73z" />
<glyph unicode="$" d="M-14 182l10 84l88 78l66 -78l-13 -84l-86 -76zM80 76l86 78h164l90 -107l121 107h164l65 -78l-88 -76h-537zM92 926l74 530l88 76l65 -76l-75 -530l-86 -76zM180 819l88 76h164l66 -76l-88 -76h-164zM289 1563l86 75h536l68 -75l-88 -78h-164l-90 106l-121 -106h-162z M362 182l74 531l86 75l66 -75l-74 -531l-86 -76zM467 926l74 530l86 76l65 -76l-74 -530l-86 -76zM557 819l88 76h164l65 -76l-88 -76h-163zM737 182l76 531l86 75l66 -75l-74 -531l-88 -76zM905 1372l13 84l86 76l65 -76l-10 -84l-88 -78z" />
<glyph unicode="'" d="M438 1249l27 199l86 74l65 -74l-26 -199l-86 -73z" />
<glyph unicode="(" d="M254 182l86 617h68l73 -86l-75 -531l-87 -76zM346 76l86 78h94l66 -78l-86 -76h-94zM346 840l86 616l88 76l66 -76l-76 -530l-96 -86h-68zM555 1563l86 75h94l66 -75l-86 -78h-94z" />
<glyph unicode=")" d="M254 76l86 78h94l66 -78l-86 -76h-95zM463 1563l86 75h94l66 -75l-86 -78h-95zM469 182l76 531l96 86h68l-86 -617l-88 -76zM573 926l76 530l86 76l66 -76l-86 -616h-68z" />
<glyph unicode="*" d="M342 657l14 99l50 43h98l-15 -99l-49 -43h-98zM375 883l12 100h100l37 -43l-14 -98h-98zM530 700l15 99h98l37 -43l-12 -99h-101zM551 842l14 98l49 43h99l-15 -98l-49 -43h-98z" />
<glyph unicode="+" d="M207 819l86 76h139l66 -76l-86 -76h-140zM416 565l22 150l84 73l66 -73l-21 -150l-86 -76zM467 924l20 149l86 76l66 -76l-23 -149l-84 -74zM557 819l86 76h139l66 -76l-86 -76h-139z" />
<glyph unicode="," d="M434 -70l33 230l88 76l66 -76l-13 -78z" />
<glyph unicode="." d="M446 82l11 78l86 76l65 -76l-10 -78l-86 -76z" />
<glyph unicode="/" d="M-31 0l19 131l442 666h74l-27 -183l-407 -614h-101zM551 840l27 184l407 614h100l-18 -131l-442 -667h-74z" />
<glyph unicode="0" d="M-14 182l75 531l86 75l66 -75l-74 -531l-88 -76zM78 76l88 78h536l66 -78l-88 -76h-537zM90 926l76 530l86 76l65 -76l-73 -530l-88 -76zM287 1563l88 75h536l66 -75l-88 -78h-537zM737 182l74 531l88 75l66 -75l-76 -531l-86 -76zM842 926l73 530l89 76l65 -76l-76 -530 l-86 -76z" />
<glyph unicode="1" d="M332 1280l10 76l172 151l-31 -217l-92 -80zM365 74l90 641l86 73l63 -73l-88 -635l-86 -76zM483 924l90 635l86 75l64 -75l-88 -635l-86 -74z" />
<glyph unicode="2" d="M-25 31l97 686l88 76l65 -76l-75 -535zM2 0l174 154h539l131 -154h-844zM164 1372l12 84l86 76l66 -76l-11 -84l-88 -78zM193 819l88 76h538l66 -76l-86 -76h-541zM297 1563l88 75h537l65 -75l-86 -78h-539zM852 926l74 530l88 76l65 -76l-73 -530l-88 -76z" />
<glyph unicode="3" d="M2 76l86 78h600l66 -78l-88 -76h-598zM211 1563l86 75h598l68 -75l-89 -78h-598zM225 819l88 76h480l65 -76l-88 -76h-477zM721 182l76 531l86 75l65 -75l-74 -531l-88 -76zM825 926l76 530l86 76l66 -76l-74 -530l-88 -76z" />
<glyph unicode="4" d="M31 926l75 540l89 76l65 -76l-76 -540l-88 -76zM121 819l86 76h541l65 -76l-88 -76h-539zM664 80l88 633l88 75l65 -75l-90 -633l-86 -76zM782 926l88 633l88 75l66 -75l-90 -633l-86 -76z" />
<glyph unicode="5" d="M-12 182l12 84l86 78l66 -78l-13 -84l-86 -76zM80 76l86 78h536l66 -78l-86 -76h-537zM80 840l108 768l134 -156l-74 -526l-98 -86h-70zM184 819l86 76h541l66 -76l-89 -76h-538zM221 1638h846l-174 -153h-539zM741 182l74 531l86 75l66 -75l-74 -531l-86 -76z" />
<glyph unicode="6" d="M33 182l86 617h67l74 -86l-76 -531l-86 -76zM123 76l88 78h537l65 -78l-86 -76h-537zM125 840l86 616l88 76l66 -76l-76 -530l-96 -86h-68zM225 819l88 76h539l66 -76l-87 -76h-540zM332 1563l88 75h536l66 -75l-86 -78h-539zM782 182l76 531l86 75l66 -75l-74 -531 l-88 -76z" />
<glyph unicode="7" d="M23 0l18 131l442 666h74l-25 -172l-409 -625h-100zM186 1563l86 75h695l65 -75l-88 -78h-692zM606 840l23 164l293 438h4l-41 -297l-207 -305h-72z" />
<glyph unicode="8" d="M-14 182l75 531l86 75l66 -75l-74 -531l-88 -76zM78 76l88 78h536l66 -78l-88 -76h-537zM90 926l76 530l86 76l65 -76l-73 -530l-88 -76zM180 819l86 76h541l65 -76l-88 -76h-538zM287 1563l88 75h536l66 -75l-88 -78h-537zM737 182l74 531l88 75l66 -75l-76 -531 l-86 -76zM842 926l73 530l89 76l65 -76l-76 -530l-86 -76z" />
<glyph unicode="9" d="M33 76l86 78h538l66 -78l-88 -76h-537zM45 926l74 530l88 76l65 -76l-75 -530l-86 -76zM137 819l86 76h541l65 -76l-88 -76h-538zM242 1563l86 75h536l68 -75l-88 -78h-537zM690 182l76 531l96 86h68l-86 -617l-88 -76zM795 926l75 530l86 76l66 -76l-86 -616h-68z" />
<glyph unicode=":" d="M410 80l10 78l86 75l67 -75l-12 -78l-86 -76zM481 604l13 76l86 78l65 -78l-10 -76l-86 -78z" />
<glyph unicode=";" d="M397 -70l33 230l88 76l66 -76l-13 -78zM494 604l10 76l88 78l65 -78l-12 -76l-86 -78z" />
<glyph unicode="&#x3c;" d="M340 635l22 164h84l125 -346l-41 -287h-4zM369 840l24 164l318 469h4l-41 -287l-221 -346h-84z" />
<glyph unicode="=" d="M129 76l88 78h539l65 -78l-88 -76h-538zM231 815l88 76h541l66 -76l-88 -78h-539z" />
<glyph unicode="&#x3e;" d="M340 166l41 287l221 346h84l-24 -164l-318 -469h-4zM483 1186l41 287h4l187 -469l-23 -164h-84z" />
<glyph unicode="?" d="M137 1563l86 75h539l59 -71l-92 -82h-526zM197 80l86 78l65 -78l-86 -76zM225 295l60 418l86 75l65 -75l-57 -418l-88 -78zM406 819l100 86h141l76 -86l-88 -76h-164zM682 936l74 520l92 80l70 -80l-74 -530l-88 -76z" />
<glyph unicode="A" d="M-25 80l101 719h67l74 -86l-88 -633l-88 -76zM82 840l86 612l90 80l66 -76l-74 -530l-98 -86h-70zM188 819l86 76h541l66 -76l-86 -76h-541zM295 1563l88 75h537l65 -75l-86 -78h-539zM733 80l88 633l99 86h67l-100 -719l-88 -76zM850 926l74 530l90 78l65 -78l-86 -616 h-69z" />
<glyph unicode="B" d="M-27 31l109 768h68l73 -86l-73 -531zM0 0l174 154h541l65 -78l-88 -76h-692zM88 840l109 768l131 -152l-76 -530l-96 -86h-68zM193 819l86 76h540l66 -76l-88 -76h-539zM231 1638h693l65 -75l-88 -78h-539zM750 182l73 531l88 75l66 -75l-76 -531l-86 -76zM854 926 l74 530l86 76l67 -76l-75 -530l-86 -76z" />
<glyph unicode="C" d="M-14 182l88 617h65l74 -86l-74 -531l-88 -76zM78 76l88 78h536l66 -78l-88 -76h-537zM78 840l88 616l86 76l65 -76l-73 -530l-99 -86h-67zM287 1563l88 75h536l66 -75l-88 -78h-537zM737 182l13 84l86 78l65 -78l-12 -84l-86 -76zM903 1372l12 84l89 76l65 -76l-12 -84 l-88 -78z" />
<glyph unicode="D" d="M-27 31l109 768h68l73 -86l-73 -531zM0 0l174 154h541l65 -78l-88 -76h-692zM88 840l109 768l131 -152l-76 -530l-96 -86h-68zM231 1638h693l65 -75l-88 -78h-539zM750 182l73 531l97 86h67l-86 -617l-86 -76zM854 926l74 530l86 76l67 -76l-88 -616h-67z" />
<glyph unicode="E" d="M33 182l86 617h67l74 -86l-76 -531l-86 -76zM123 76l88 78h537l65 -78l-86 -76h-537zM125 840l86 616l88 76l66 -76l-76 -530l-96 -86h-68zM225 819l88 76h416l66 -76l-86 -76h-418zM332 1563l88 75h536l66 -75l-86 -78h-539z" />
<glyph unicode="F" d="M25 78l100 721h68l73 -86l-88 -635l-88 -76zM131 840l88 616l86 76l66 -76l-74 -530l-98 -86h-68zM233 819l86 76h418l66 -76l-88 -76h-416zM340 1563l88 75h537l65 -75l-88 -78h-536z" />
<glyph unicode="G" d="M29 182l86 617h67l72 -86l-74 -531l-86 -76zM119 76l88 78h536l66 -78l-86 -76h-539zM121 840l86 616l86 76l65 -76l-73 -530l-97 -86h-67zM328 1563l88 75h536l66 -75l-86 -78h-539zM598 819l86 76h317l-174 -152h-163zM778 182l74 531l174 151l-94 -682l-88 -76z" />
<glyph unicode="H" d="M-29 80l101 719h67l74 -86l-88 -633l-88 -76zM78 840l102 719l86 75l66 -75l-88 -633l-99 -86h-67zM180 819l86 76h541l65 -76l-88 -76h-538zM723 80l88 633l98 86h68l-103 -719l-86 -76zM842 926l88 633l88 75l65 -75l-100 -719h-68z" />
<glyph unicode="I" d="M348 80l88 633l86 75l66 -75l-88 -633l-86 -76zM467 926l88 633l86 75l66 -75l-89 -633l-86 -76z" />
<glyph unicode="J" d="M-23 182l13 84l86 78l65 -78l-10 -84l-88 -76zM70 76l86 78h538l66 -78l-88 -76h-537zM731 182l74 531l98 86h68l-88 -617l-86 -76zM836 926l88 637l88 75l65 -75l-102 -723h-66z" />
<glyph unicode="K" d="M-29 80l101 719h67l74 -86l-88 -633l-88 -76zM78 840l100 719l88 75l66 -75l-88 -633l-99 -86h-67zM180 819l86 76h164l66 -76l-88 -76h-162zM463 737l67 62h76l266 -658l-18 -141h-90zM485 901l508 737h90l-20 -141l-451 -657h-75z" />
<glyph unicode="L" d="M137 182l86 617h68l74 -86l-76 -531l-86 -76zM227 76l88 78h537l66 -78l-87 -76h-538zM229 840l101 719l88 75l65 -75l-90 -633l-96 -86h-68z" />
<glyph unicode="M" d="M-31 76l101 721h67l74 -84l-88 -637l-88 -76zM76 842l102 721l88 75l66 -75l-90 -637l-99 -84h-67zM315 1157l41 299h4l172 -440l-24 -176h-64zM551 840l24 176l295 440h4l-43 -299l-217 -317h-63zM723 76l90 637l98 84h68l-102 -721l-89 -76zM844 926l88 637l88 75 l65 -75l-100 -721h-67z" />
<glyph unicode="N" d="M-29 80l101 719h67l74 -86l-88 -633l-88 -76zM78 840l102 719l86 75l66 -75l-88 -633l-99 -86h-67zM344 1352l21 155h67l385 -450l-18 -121h-97zM723 80l88 633l98 86h68l-103 -719l-86 -76zM842 926l88 633l88 75l65 -75l-102 -719h-66z" />
<glyph unicode="O" d="M-14 182l86 617h67l74 -86l-74 -531l-88 -76zM78 76l88 78h536l66 -78l-88 -76h-537zM78 840l88 616l86 76l65 -76l-73 -530l-99 -86h-67zM287 1563l88 75h536l66 -75l-88 -78h-537zM737 182l74 531l98 86h68l-88 -617l-86 -76zM842 926l73 530l89 76l65 -76l-86 -616 h-68z" />
<glyph unicode="P" d="M-23 80l101 719h67l74 -86l-90 -633l-86 -76zM86 840l109 768l131 -152l-76 -530l-96 -86h-68zM190 819l86 76h541l66 -76l-88 -76h-539zM229 1638h693l65 -75l-88 -78h-539zM852 926l74 530l86 76l65 -76l-73 -530l-86 -76z" />
<glyph unicode="Q" d="M-14 182l86 617h67l74 -86l-74 -531l-88 -76zM78 76l88 78h536l66 -78l-88 -76h-537zM78 840l88 616l86 76l65 -76l-73 -530l-99 -86h-67zM287 1563l88 75h536l66 -75l-88 -78h-537zM553 442l39 279l139 -242l-35 -256zM737 182l74 531l98 86h68l-88 -617l-86 -76z M842 926l73 530l89 76l65 -76l-86 -616h-68z" />
<glyph unicode="R" d="M-23 80l101 719h67l74 -86l-90 -633l-86 -76zM86 840l109 768l131 -152l-76 -530l-96 -86h-68zM190 819l86 76h541l66 -76l-88 -76h-539zM227 1638h695l65 -75l-88 -78h-539zM250 616l12 84h125l498 -624l-11 -76h-133zM852 926l74 530l86 76l65 -76l-73 -530l-86 -76z " />
<glyph unicode="S" d="M-14 182l10 84l88 78l66 -78l-13 -84l-86 -76zM76 76l88 78h536l66 -78l-86 -76h-537zM92 926l74 530l88 76l65 -76l-75 -530l-86 -76zM180 819l88 76h541l65 -76l-88 -76h-540zM289 1563l86 75h536l68 -75l-88 -78h-537zM737 182l76 531l86 75l66 -75l-74 -531l-88 -76z M905 1372l13 84l86 76l65 -76l-10 -84l-88 -78z" />
<glyph unicode="T" d="M100 1563l88 75h701l65 -75l-88 -78h-243l-93 106l-118 -106h-246zM242 80l88 633l88 75l65 -75l-88 -633l-88 -76zM360 926l74 530l88 76l66 -76l-74 -530l-88 -76z" />
<glyph unicode="U" d="M-20 182l86 617h67l74 -86l-76 -531l-86 -76zM72 76l86 78h536l66 -78l-86 -76h-537zM72 840l100 719l88 75l66 -75l-90 -633l-97 -86h-67zM729 182l76 531l96 86h68l-86 -617l-88 -76zM834 926l90 633l86 75l65 -75l-100 -719h-68z" />
<glyph unicode="V" d="M14 707l13 92h131l217 -594l-29 -205h-61zM37 840l100 719l86 75l66 -75l-92 -656l-43 -63h-117zM389 0l29 205l385 594h131l-14 -92l-467 -707h-64zM795 903l92 656l88 75l65 -75l-100 -719h-119z" />
<glyph unicode="W" d="M-31 76l103 721h67l74 -86l-90 -635l-88 -76zM76 840l102 721l88 75l66 -75l-90 -635l-97 -86h-69zM178 182l41 299l219 316h64l-25 -174l-295 -441h-4zM520 623l25 174h63l129 -316l-43 -299h-4zM723 76l90 635l96 86h70l-102 -721l-89 -76zM842 926l90 635l88 75 l65 -75l-102 -721h-68z" />
<glyph unicode="X" d="M-31 0l21 141l430 656h84l-25 -172l-409 -625h-101zM180 1497l21 141h98l233 -624l-24 -174h-82zM522 625l23 172h84l245 -656l-20 -141h-98zM551 840l24 174l410 624h100l-20 -141l-430 -657h-84z" />
<glyph unicode="Y" d="M66 1528l16 110h119l223 -637l-23 -163h-94zM240 76l88 635l88 75l65 -75l-88 -635l-88 -76zM444 838l23 163l401 637h121l-16 -110l-436 -690h-93z" />
<glyph unicode="Z" d="M55 76l88 78h562l65 -78l-88 -76h-561zM152 197l38 266l240 334h74l-25 -172l-303 -428h-24zM289 1563l86 75h557l67 -75l-88 -78h-557zM551 840l24 174l304 428h24l-39 -266l-239 -336h-74z" />
<glyph unicode="[" d="M188 31l109 768h68l71 -86l-74 -531zM215 0l174 154h162l92 -107l-6 -47h-422zM303 840l107 768l131 -152l-74 -530l-96 -86h-68zM444 1638h422l-6 -47l-121 -106h-164z" />
<glyph unicode="\" d="M182 1507l19 131h98l236 -614l-27 -184h-72zM520 614l25 183h73l254 -666l-18 -131h-98z" />
<glyph unicode="]" d="M188 0l7 47l120 107h164l131 -154h-422zM412 1591l6 47h422l-174 -153h-162zM514 182l74 531l96 86h68l-107 -768zM618 926l74 530l174 152l-108 -768h-68z" />
<glyph unicode="_" d="M182 76l86 78h539l65 -78l-86 -76h-538z" />
<glyph unicode="a" d="M-25 80l101 719h67l74 -86l-88 -633l-88 -76zM82 840l86 612l90 80l66 -76l-74 -530l-98 -86h-70zM188 819l86 76h541l66 -76l-86 -76h-541zM295 1563l88 75h537l65 -75l-86 -78h-539zM733 80l88 633l99 86h67l-100 -719l-88 -76zM850 926l74 530l90 78l65 -78l-86 -616 h-69z" />
<glyph unicode="b" d="M-27 31l109 768h68l73 -86l-73 -531zM0 0l174 154h541l65 -78l-88 -76h-692zM88 840l109 768l131 -152l-76 -530l-96 -86h-68zM193 819l86 76h540l66 -76l-88 -76h-539zM231 1638h693l65 -75l-88 -78h-539zM750 182l73 531l88 75l66 -75l-76 -531l-86 -76zM854 926 l74 530l86 76l67 -76l-75 -530l-86 -76z" />
<glyph unicode="c" d="M-14 182l88 617h65l74 -86l-74 -531l-88 -76zM78 76l88 78h536l66 -78l-88 -76h-537zM78 840l88 616l86 76l65 -76l-73 -530l-99 -86h-67zM287 1563l88 75h536l66 -75l-88 -78h-537zM737 182l13 84l86 78l65 -78l-12 -84l-86 -76zM903 1372l12 84l89 76l65 -76l-12 -84 l-88 -78z" />
<glyph unicode="d" d="M-27 31l109 768h68l73 -86l-73 -531zM0 0l174 154h541l65 -78l-88 -76h-692zM88 840l109 768l131 -152l-76 -530l-96 -86h-68zM231 1638h693l65 -75l-88 -78h-539zM750 182l73 531l97 86h67l-86 -617l-86 -76zM854 926l74 530l86 76l67 -76l-88 -616h-67z" />
<glyph unicode="e" d="M33 182l86 617h67l74 -86l-76 -531l-86 -76zM123 76l88 78h537l65 -78l-86 -76h-537zM125 840l86 616l88 76l66 -76l-76 -530l-96 -86h-68zM225 819l88 76h416l66 -76l-86 -76h-418zM332 1563l88 75h536l66 -75l-86 -78h-539z" />
<glyph unicode="f" d="M25 78l100 721h68l73 -86l-88 -635l-88 -76zM131 840l88 616l86 76l66 -76l-74 -530l-98 -86h-68zM233 819l86 76h418l66 -76l-88 -76h-416zM340 1563l88 75h537l65 -75l-88 -78h-536z" />
<glyph unicode="g" d="M29 182l86 617h67l72 -86l-74 -531l-86 -76zM119 76l88 78h536l66 -78l-86 -76h-539zM121 840l86 616l86 76l65 -76l-73 -530l-97 -86h-67zM328 1563l88 75h536l66 -75l-86 -78h-539zM598 819l86 76h317l-174 -152h-163zM778 182l74 531l174 151l-94 -682l-88 -76z" />
<glyph unicode="h" d="M-29 80l101 719h67l74 -86l-88 -633l-88 -76zM78 840l102 719l86 75l66 -75l-88 -633l-99 -86h-67zM180 819l86 76h541l65 -76l-88 -76h-538zM723 80l88 633l98 86h68l-103 -719l-86 -76zM842 926l88 633l88 75l65 -75l-100 -719h-68z" />
<glyph unicode="i" d="M348 80l88 633l86 75l66 -75l-88 -633l-86 -76zM467 926l88 633l86 75l66 -75l-89 -633l-86 -76z" />
<glyph unicode="j" d="M-23 182l13 84l86 78l65 -78l-10 -84l-88 -76zM70 76l86 78h538l66 -78l-88 -76h-537zM731 182l74 531l98 86h68l-88 -617l-86 -76zM836 926l88 637l88 75l65 -75l-102 -723h-66z" />
<glyph unicode="k" d="M-29 80l101 719h67l74 -86l-88 -633l-88 -76zM78 840l100 719l88 75l66 -75l-88 -633l-99 -86h-67zM180 819l86 76h164l66 -76l-88 -76h-162zM463 737l67 62h76l266 -658l-18 -141h-90zM485 901l508 737h90l-20 -141l-451 -657h-75z" />
<glyph unicode="l" d="M137 182l86 617h68l74 -86l-76 -531l-86 -76zM227 76l88 78h537l66 -78l-87 -76h-538zM229 840l101 719l88 75l65 -75l-90 -633l-96 -86h-68z" />
<glyph unicode="m" d="M-31 76l101 721h67l74 -84l-88 -637l-88 -76zM76 842l102 721l88 75l66 -75l-90 -637l-99 -84h-67zM315 1157l41 299h4l172 -440l-24 -176h-64zM551 840l24 176l295 440h4l-43 -299l-217 -317h-63zM723 76l90 637l98 84h68l-102 -721l-89 -76zM844 926l88 637l88 75 l65 -75l-100 -721h-67z" />
<glyph unicode="n" d="M-29 80l101 719h67l74 -86l-88 -633l-88 -76zM78 840l102 719l86 75l66 -75l-88 -633l-99 -86h-67zM344 1352l21 155h67l385 -450l-18 -121h-97zM723 80l88 633l98 86h68l-103 -719l-86 -76zM842 926l88 633l88 75l65 -75l-102 -719h-66z" />
<glyph unicode="o" d="M-14 182l86 617h67l74 -86l-74 -531l-88 -76zM78 76l88 78h536l66 -78l-88 -76h-537zM78 840l88 616l86 76l65 -76l-73 -530l-99 -86h-67zM287 1563l88 75h536l66 -75l-88 -78h-537zM737 182l74 531l98 86h68l-88 -617l-86 -76zM842 926l73 530l89 76l65 -76l-86 -616 h-68z" />
<glyph unicode="p" d="M-23 80l101 719h67l74 -86l-90 -633l-86 -76zM86 840l109 768l131 -152l-76 -530l-96 -86h-68zM190 819l86 76h541l66 -76l-88 -76h-539zM229 1638h693l65 -75l-88 -78h-539zM852 926l74 530l86 76l65 -76l-73 -530l-86 -76z" />
<glyph unicode="q" d="M-14 182l86 617h67l74 -86l-74 -531l-88 -76zM78 76l88 78h536l66 -78l-88 -76h-537zM78 840l88 616l86 76l65 -76l-73 -530l-99 -86h-67zM287 1563l88 75h536l66 -75l-88 -78h-537zM553 442l39 279l139 -242l-35 -256zM737 182l74 531l98 86h68l-88 -617l-86 -76z M842 926l73 530l89 76l65 -76l-86 -616h-68z" />
<glyph unicode="r" d="M-23 80l101 719h67l74 -86l-90 -633l-86 -76zM86 840l109 768l131 -152l-76 -530l-96 -86h-68zM190 819l86 76h541l66 -76l-88 -76h-539zM227 1638h695l65 -75l-88 -78h-539zM250 616l12 84h125l498 -624l-11 -76h-133zM852 926l74 530l86 76l65 -76l-73 -530l-86 -76z " />
<glyph unicode="s" d="M-14 182l10 84l88 78l66 -78l-13 -84l-86 -76zM76 76l88 78h536l66 -78l-86 -76h-537zM92 926l74 530l88 76l65 -76l-75 -530l-86 -76zM180 819l88 76h541l65 -76l-88 -76h-540zM289 1563l86 75h536l68 -75l-88 -78h-537zM737 182l76 531l86 75l66 -75l-74 -531l-88 -76z M905 1372l13 84l86 76l65 -76l-10 -84l-88 -78z" />
<glyph unicode="t" d="M100 1563l88 75h701l65 -75l-88 -78h-243l-93 106l-118 -106h-246zM242 80l88 633l88 75l65 -75l-88 -633l-88 -76zM360 926l74 530l88 76l66 -76l-74 -530l-88 -76z" />
<glyph unicode="u" d="M-20 182l86 617h67l74 -86l-76 -531l-86 -76zM72 76l86 78h536l66 -78l-86 -76h-537zM72 840l100 719l88 75l66 -75l-90 -633l-97 -86h-67zM729 182l76 531l96 86h68l-86 -617l-88 -76zM834 926l90 633l86 75l65 -75l-100 -719h-68z" />
<glyph unicode="v" d="M14 707l13 92h131l217 -594l-29 -205h-61zM37 840l100 719l86 75l66 -75l-92 -656l-43 -63h-117zM389 0l29 205l385 594h131l-14 -92l-467 -707h-64zM795 903l92 656l88 75l65 -75l-100 -719h-119z" />
<glyph unicode="w" d="M-31 76l103 721h67l74 -86l-90 -635l-88 -76zM76 840l102 721l88 75l66 -75l-90 -635l-97 -86h-69zM178 182l41 299l219 316h64l-25 -174l-295 -441h-4zM520 623l25 174h63l129 -316l-43 -299h-4zM723 76l90 635l96 86h70l-102 -721l-89 -76zM842 926l90 635l88 75 l65 -75l-102 -721h-68z" />
<glyph unicode="x" d="M-31 0l21 141l430 656h84l-25 -172l-409 -625h-101zM180 1497l21 141h98l233 -624l-24 -174h-82zM522 625l23 172h84l245 -656l-20 -141h-98zM551 840l24 174l410 624h100l-20 -141l-430 -657h-84z" />
<glyph unicode="y" d="M66 1528l16 110h119l223 -637l-23 -163h-94zM240 76l88 635l88 75l65 -75l-88 -635l-88 -76zM444 838l23 163l401 637h121l-16 -110l-436 -690h-93z" />
<glyph unicode="z" d="M55 76l88 78h562l65 -78l-88 -76h-561zM152 197l38 266l240 334h74l-25 -172l-303 -428h-24zM289 1563l86 75h557l67 -75l-88 -78h-557zM551 840l24 174l304 428h24l-39 -266l-239 -336h-74z" />
<glyph unicode="|" d="M336 0l100 713l86 75l66 -75l-99 -713l-88 -76zM467 926l98 712l88 76l66 -76l-101 -712l-86 -76z" />
<glyph unicode="&#xa0;" />
<glyph unicode="&#x2000;" horiz-adv-x="857" />
<glyph unicode="&#x2001;" horiz-adv-x="1714" />
<glyph unicode="&#x2002;" horiz-adv-x="857" />
<glyph unicode="&#x2003;" horiz-adv-x="1714" />
<glyph unicode="&#x2004;" horiz-adv-x="571" />
<glyph unicode="&#x2005;" horiz-adv-x="428" />
<glyph unicode="&#x2006;" horiz-adv-x="285" />
<glyph unicode="&#x2007;" horiz-adv-x="285" />
<glyph unicode="&#x2008;" horiz-adv-x="214" />
<glyph unicode="&#x2009;" horiz-adv-x="342" />
<glyph unicode="&#x200a;" horiz-adv-x="95" />
<glyph unicode="&#x202f;" horiz-adv-x="342" />
<glyph unicode="&#x205f;" horiz-adv-x="428" />
<glyph unicode="&#x25fc;" horiz-adv-x="1638" d="M0 0v1638h1638v-1638h-1638z" />
</font>
</defs>
</svg>
